<svg width="222" height="307" viewBox="0 0 222 307" fill="none" xmlns="http://www.w3.org/2000/svg">
<path d="M0 298.09C0 293.165 3.99242 289.173 8.91731 289.173C13.8422 289.173 17.8346 293.165 17.8346 298.09C17.8346 303.015 13.8422 307.008 8.91731 307.008C3.99242 307.008 0 303.015 0 298.09Z" fill="#D1D3FF" fill-opacity="0.31"/>
<path d="M0 240.256C0 235.331 3.99242 231.338 8.91731 231.338C13.8422 231.338 17.8346 235.331 17.8346 240.256C17.8346 245.181 13.8422 249.173 8.91731 249.173C3.99242 249.173 0 245.181 0 240.256Z" fill="#D1D3FF" fill-opacity="0.31"/>
<path d="M0 182.421C0 177.496 3.99242 173.504 8.91731 173.504C13.8422 173.504 17.8346 177.496 17.8346 182.421C17.8346 187.346 13.8422 191.338 8.91731 191.338C3.99242 191.338 0 187.346 0 182.421Z" fill="#D1D3FF" fill-opacity="0.31"/>
<path d="M0 124.587C0 119.662 3.99242 115.669 8.91731 115.669C13.8422 115.669 17.8346 119.662 17.8346 124.587C17.8346 129.511 13.8422 133.504 8.91731 133.504C3.99242 133.504 0 129.511 0 124.587Z" fill="#D1D3FF" fill-opacity="0.31"/>
<path d="M0 66.7519C0 61.827 3.99242 57.8346 8.91731 57.8346C13.8422 57.8346 17.8346 61.827 17.8346 66.7519C17.8346 71.6768 13.8422 75.6692 8.91731 75.6692C3.99242 75.6692 0 71.6768 0 66.7519Z" fill="#D1D3FF" fill-opacity="0.31"/>
<path d="M0 8.9173C0 3.99242 3.99242 0 8.91731 0C13.8422 0 17.8346 3.99242 17.8346 8.9173C17.8346 13.8422 13.8422 17.8346 8.91731 17.8346C3.99242 17.8346 0 13.8422 0 8.9173Z" fill="#D1D3FF" fill-opacity="0.31"/>
<path d="M50.8345 298.09C50.8345 293.165 54.8269 289.173 59.7518 289.173C64.6767 289.173 68.6691 293.165 68.6691 298.09C68.6691 303.015 64.6767 307.008 59.7518 307.008C54.8269 307.008 50.8345 303.015 50.8345 298.09Z" fill="#D1D3FF" fill-opacity="0.31"/>
<path d="M50.8345 240.256C50.8345 235.331 54.8269 231.338 59.7518 231.338C64.6767 231.338 68.6691 235.331 68.6691 240.256C68.6691 245.181 64.6767 249.173 59.7518 249.173C54.8269 249.173 50.8345 245.181 50.8345 240.256Z" fill="#D1D3FF" fill-opacity="0.31"/>
<path d="M50.8345 182.421C50.8345 177.496 54.8269 173.504 59.7518 173.504C64.6767 173.504 68.6691 177.496 68.6691 182.421C68.6691 187.346 64.6767 191.338 59.7518 191.338C54.8269 191.338 50.8345 187.346 50.8345 182.421Z" fill="#D1D3FF" fill-opacity="0.31"/>
<path d="M50.8345 124.587C50.8345 119.662 54.8269 115.669 59.7518 115.669C64.6767 115.669 68.6691 119.662 68.6691 124.587C68.6691 129.511 64.6767 133.504 59.7518 133.504C54.8269 133.504 50.8345 129.511 50.8345 124.587Z" fill="#D1D3FF" fill-opacity="0.31"/>
<path d="M50.8345 66.7519C50.8345 61.827 54.8269 57.8346 59.7518 57.8346C64.6767 57.8346 68.6691 61.827 68.6691 66.7519C68.6691 71.6768 64.6767 75.6692 59.7518 75.6692C54.8269 75.6692 50.8345 71.6768 50.8345 66.7519Z" fill="#D1D3FF" fill-opacity="0.31"/>
<path d="M50.8345 8.9173C50.8345 3.99242 54.8269 0 59.7518 0C64.6767 0 68.6691 3.99242 68.6691 8.9173C68.6691 13.8422 64.6767 17.8346 59.7518 17.8346C54.8269 17.8346 50.8345 13.8422 50.8345 8.9173Z" fill="#D1D3FF" fill-opacity="0.31"/>
<path d="M101.669 298.09C101.669 293.165 105.661 289.173 110.586 289.173C115.511 289.173 119.504 293.165 119.504 298.09C119.504 303.015 115.511 307.008 110.586 307.008C105.661 307.008 101.669 303.015 101.669 298.09Z" fill="#D1D3FF" fill-opacity="0.31"/>
<path d="M101.669 240.256C101.669 235.331 105.661 231.338 110.586 231.338C115.511 231.338 119.504 235.331 119.504 240.256C119.504 245.181 115.511 249.173 110.586 249.173C105.661 249.173 101.669 245.181 101.669 240.256Z" fill="#D1D3FF" fill-opacity="0.31"/>
<path d="M101.669 182.421C101.669 177.496 105.661 173.504 110.586 173.504C115.511 173.504 119.504 177.496 119.504 182.421C119.504 187.346 115.511 191.338 110.586 191.338C105.661 191.338 101.669 187.346 101.669 182.421Z" fill="#D1D3FF" fill-opacity="0.31"/>
<path d="M101.669 124.587C101.669 119.662 105.661 115.669 110.586 115.669C115.511 115.669 119.504 119.662 119.504 124.587C119.504 129.511 115.511 133.504 110.586 133.504C105.661 133.504 101.669 129.511 101.669 124.587Z" fill="#D1D3FF" fill-opacity="0.31"/>
<path d="M101.669 66.7519C101.669 61.827 105.661 57.8346 110.586 57.8346C115.511 57.8346 119.504 61.827 119.504 66.7519C119.504 71.6768 115.511 75.6692 110.586 75.6692C105.661 75.6692 101.669 71.6768 101.669 66.7519Z" fill="#D1D3FF" fill-opacity="0.31"/>
<path d="M101.669 8.9173C101.669 3.99242 105.661 0 110.586 0C115.511 0 119.504 3.99242 119.504 8.9173C119.504 13.8422 115.511 17.8346 110.586 17.8346C105.661 17.8346 101.669 13.8422 101.669 8.9173Z" fill="#D1D3FF" fill-opacity="0.31"/>
<path d="M152.503 298.09C152.503 293.165 156.496 289.173 161.421 289.173C166.346 289.173 170.338 293.165 170.338 298.09C170.338 303.015 166.346 307.008 161.421 307.008C156.496 307.008 152.503 303.015 152.503 298.09Z" fill="#D1D3FF" fill-opacity="0.31"/>
<path d="M152.503 240.256C152.503 235.331 156.496 231.338 161.421 231.338C166.346 231.338 170.338 235.331 170.338 240.256C170.338 245.181 166.346 249.173 161.421 249.173C156.496 249.173 152.503 245.181 152.503 240.256Z" fill="#D1D3FF" fill-opacity="0.31"/>
<path d="M152.503 182.421C152.503 177.496 156.496 173.504 161.421 173.504C166.346 173.504 170.338 177.496 170.338 182.421C170.338 187.346 166.346 191.338 161.421 191.338C156.496 191.338 152.503 187.346 152.503 182.421Z" fill="#D1D3FF" fill-opacity="0.31"/>
<path d="M152.503 124.587C152.503 119.662 156.496 115.669 161.421 115.669C166.346 115.669 170.338 119.662 170.338 124.587C170.338 129.511 166.346 133.504 161.421 133.504C156.496 133.504 152.503 129.511 152.503 124.587Z" fill="#D1D3FF" fill-opacity="0.31"/>
<path d="M152.503 66.7519C152.503 61.827 156.496 57.8346 161.421 57.8346C166.346 57.8346 170.338 61.827 170.338 66.7519C170.338 71.6768 166.346 75.6692 161.421 75.6692C156.496 75.6692 152.503 71.6768 152.503 66.7519Z" fill="#D1D3FF" fill-opacity="0.31"/>
<path d="M152.503 8.9173C152.503 3.99242 156.496 0 161.421 0C166.346 0 170.338 3.99242 170.338 8.9173C170.338 13.8422 166.346 17.8346 161.421 17.8346C156.496 17.8346 152.503 13.8422 152.503 8.9173Z" fill="#D1D3FF" fill-opacity="0.31"/>
<path d="M203.338 298.09C203.338 293.165 207.33 289.173 212.255 289.173C217.18 289.173 221.173 293.165 221.173 298.09C221.173 303.015 217.18 307.008 212.255 307.008C207.33 307.008 203.338 303.015 203.338 298.09Z" fill="#D1D3FF" fill-opacity="0.31"/>
<path d="M203.338 240.256C203.338 235.331 207.33 231.338 212.255 231.338C217.18 231.338 221.173 235.331 221.173 240.256C221.173 245.181 217.18 249.173 212.255 249.173C207.33 249.173 203.338 245.181 203.338 240.256Z" fill="#D1D3FF" fill-opacity="0.31"/>
<path d="M203.338 182.421C203.338 177.496 207.33 173.504 212.255 173.504C217.18 173.504 221.173 177.496 221.173 182.421C221.173 187.346 217.18 191.338 212.255 191.338C207.33 191.338 203.338 187.346 203.338 182.421Z" fill="#D1D3FF" fill-opacity="0.31"/>
<path d="M203.338 124.587C203.338 119.662 207.33 115.669 212.255 115.669C217.18 115.669 221.173 119.662 221.173 124.587C221.173 129.511 217.18 133.504 212.255 133.504C207.33 133.504 203.338 129.511 203.338 124.587Z" fill="#D1D3FF" fill-opacity="0.31"/>
<path d="M203.338 66.7519C203.338 61.827 207.33 57.8346 212.255 57.8346C217.18 57.8346 221.173 61.827 221.173 66.7519C221.173 71.6768 217.18 75.6692 212.255 75.6692C207.33 75.6692 203.338 71.6768 203.338 66.7519Z" fill="#D1D3FF" fill-opacity="0.31"/>
<path d="M203.338 8.9173C203.338 3.99242 207.33 0 212.255 0C217.18 0 221.173 3.99242 221.173 8.9173C221.173 13.8422 217.18 17.8346 212.255 17.8346C207.33 17.8346 203.338 13.8422 203.338 8.9173Z" fill="#D1D3FF" fill-opacity="0.31"/>
</svg>
