<svg width="143" height="143" viewBox="0 0 143 143" fill="none" xmlns="http://www.w3.org/2000/svg">
<path d="M100.962 0.345447C102.358 0.931886 103.363 2.18854 103.642 3.6686L109.2 33.8004L139.331 39.3297C140.811 39.6089 142.068 40.6142 142.655 42.0105C143.241 43.4068 143.073 44.9986 142.208 46.2552L124.81 71.5L142.208 96.7169C143.073 97.9735 143.241 99.5653 142.655 100.962C142.068 102.358 140.811 103.363 139.331 103.642L109.2 109.2L103.642 139.331C103.363 140.811 102.358 142.068 100.962 142.655C99.5653 143.241 97.9735 143.073 96.7169 142.208L71.5 124.81L46.2831 142.208C45.0265 143.073 43.4347 143.241 42.0384 142.655C40.6422 142.068 39.6368 140.811 39.3576 139.331L33.8004 109.2L3.6686 103.642C2.18854 103.363 0.931886 102.358 0.345447 100.962C-0.240992 99.5653 -0.0734377 97.9735 0.792257 96.7169L18.1899 71.5L0.792257 46.2831C-0.0734377 45.0265 -0.240992 43.4347 0.345447 42.0384C0.931886 40.6422 2.18854 39.6368 3.6686 39.3576L33.8004 33.8004L39.3576 3.6686C39.6368 2.18854 40.6422 0.931886 42.0384 0.345447C43.4347 -0.240992 45.0265 -0.0734377 46.2831 0.792257L71.5 18.1899L96.7169 0.792257C97.9735 -0.0734377 99.5653 -0.240992 100.962 0.345447ZM44.6914 71.5C44.6914 64.3899 47.5159 57.571 52.5434 52.5434C57.571 47.5159 64.3899 44.6914 71.5 44.6914C78.6101 44.6914 85.429 47.5159 90.4566 52.5434C95.4842 57.571 98.3086 64.3899 98.3086 71.5C98.3086 78.6101 95.4842 85.429 90.4566 90.4566C85.429 95.4842 78.6101 98.3086 71.5 98.3086C64.3899 98.3086 57.571 95.4842 52.5434 90.4566C47.5159 85.429 44.6914 78.6101 44.6914 71.5ZM107.245 71.5C107.245 62.0199 103.479 52.928 96.7754 46.2246C90.072 39.5211 80.9801 35.7552 71.5 35.7552C62.0199 35.7552 52.928 39.5211 46.2246 46.2246C39.5211 52.928 35.7552 62.0199 35.7552 71.5C35.7552 80.9801 39.5211 90.072 46.2246 96.7754C52.928 103.479 62.0199 107.245 71.5 107.245C80.9801 107.245 90.072 103.479 96.7754 96.7754C103.479 90.072 107.245 80.9801 107.245 71.5Z" fill="white"/>
</svg>
