<svg width="123" height="143" viewBox="0 0 123 143" fill="none" xmlns="http://www.w3.org/2000/svg">
<path d="M71.3404 0C31.9196 0 0 32.0154 0 71.5C0 110.985 31.9196 143 71.3404 143C90.6837 143 108.208 135.275 121.071 122.763C122.667 121.199 123.082 118.773 122.061 116.794C121.039 114.815 118.837 113.698 116.634 114.081C113.506 114.623 110.314 114.911 107.027 114.911C76.0964 114.911 51.0076 89.758 51.0076 58.7321C51.0076 37.729 62.4987 19.4391 79.5118 9.79933C81.4589 8.68214 82.4484 6.44777 81.9696 4.27723C81.4908 2.1067 79.6395 0.478795 77.4051 0.287277C75.3942 0.127679 73.3833 0.0319192 71.3404 0.0319192V0Z" fill="white"/>
</svg>
